<svg width="40" height="41" viewBox="0 0 40 41" fill="none" xmlns="http://www.w3.org/2000/svg">
<g clip-path="url(#clip0_1077_4226)">
<path d="M21.4062 32.0986H17.1875C16.7989 32.0986 16.4844 31.7841 16.4844 31.3955V22.1611H14.375C13.9864 22.1611 13.6719 21.8466 13.6719 21.458V17.2393C13.6719 16.8506 13.9864 16.5361 14.375 16.5361H16.4844V13.0205C16.4844 10.3069 18.6926 8.09863 21.4062 8.09863H25.625C26.0136 8.09863 26.3281 8.41312 26.3281 8.80176V13.0205C26.3281 13.4091 26.0136 13.7236 25.625 13.7236H22.1094V16.5361H25.625C25.8317 16.5361 26.0281 16.6268 26.1613 16.7847C26.2951 16.9426 26.3528 17.1507 26.3185 17.3546L25.6153 21.5734C25.559 21.9126 25.2658 22.1611 24.9218 22.1611H22.1093V31.3955C22.1094 31.7841 21.7949 32.0986 21.4062 32.0986Z" fill="white"/>
</g>
<circle cx="20" cy="20.0986" r="19.5" stroke="white"/>
<defs>
<clipPath id="clip0_1077_4226">
<rect width="24" height="24" fill="white" transform="translate(8 8.09863)"/>
</clipPath>
</defs>
</svg>
