<svg width="40" height="41" viewBox="0 0 40 41" fill="none" xmlns="http://www.w3.org/2000/svg">
<g clip-path="url(#clip0_1077_4241)">
<path d="M31.994 32.0986L32 32.0976V23.2956C32 18.9896 31.073 15.6726 26.039 15.6726C23.619 15.6726 21.995 17.0006 21.332 18.2596H21.262V16.0746H16.489V32.0976H21.459V24.1636C21.459 22.0746 21.855 20.0546 24.442 20.0546C26.991 20.0546 27.029 22.4386 27.029 24.2976V32.0986H31.994Z" fill="white"/>
<path d="M8.396 16.0757H13.372V32.0987H8.396V16.0757Z" fill="white"/>
<path d="M10.882 8.09863C9.291 8.09863 8 9.38963 8 10.9806C8 12.5716 9.291 13.8896 10.882 13.8896C12.473 13.8896 13.764 12.5716 13.764 10.9806C13.763 9.38963 12.472 8.09863 10.882 8.09863Z" fill="white"/>
</g>
<circle cx="20" cy="20.0986" r="19.5" stroke="white"/>
<defs>
<clipPath id="clip0_1077_4241">
<rect width="24" height="24" fill="white" transform="translate(8 8.09863)"/>
</clipPath>
</defs>
</svg>
