<svg width="40" height="41" viewBox="0 0 40 41" fill="none" xmlns="http://www.w3.org/2000/svg">
<path d="M30.7747 14.4748C30.5154 13.5109 29.7554 12.7511 28.7916 12.4915C27.0309 12.0098 19.988 12.0098 19.988 12.0098C19.988 12.0098 12.9454 12.0098 11.1847 12.4733C10.2394 12.7325 9.46091 13.511 9.20163 14.4748C8.73828 16.2354 8.73828 19.8866 8.73828 19.8866C8.73828 19.8866 8.73828 23.5561 9.20163 25.2983C9.46118 26.2621 10.2209 27.0219 11.1848 27.2814C12.9639 27.7633 19.9883 27.7633 19.9883 27.7633C19.9883 27.7633 27.0309 27.7633 28.7916 27.2999C29.7555 27.0404 30.5154 26.2806 30.7749 25.3168C31.2381 23.5561 31.2381 19.9051 31.2381 19.9051C31.2381 19.9051 31.2567 16.2354 30.7747 14.4748ZM17.7457 23.2596V16.5135L23.6022 19.8866L17.7457 23.2596Z" fill="white"/>
<circle cx="20" cy="20.0986" r="19.5" stroke="white"/>
</svg>
