<svg width="30" height="31" viewBox="0 0 30 31" fill="none" xmlns="http://www.w3.org/2000/svg">
<g clip-path="url(#clip0_1077_4259)">
<path d="M16.3835 5.1377C16.1678 5.1377 15.9929 5.31256 15.9929 5.52832C15.9929 5.74408 16.1678 5.91895 16.3835 5.91895C20.7039 5.91895 24.2188 9.43381 24.2188 13.7542C24.2188 13.9698 24.3936 14.1448 24.6094 14.1448C24.8252 14.1448 25 13.9698 25 13.7542C25 9.00305 21.1347 5.1377 16.3835 5.1377Z" fill="white"/>
<path d="M16.3835 7.48779C16.1678 7.48779 15.9929 7.66281 15.9929 7.87857C15.9929 8.09418 16.1678 8.2692 16.3835 8.2692C19.408 8.2692 21.8686 10.7297 21.8686 13.7543C21.8686 13.9699 22.0435 14.1449 22.2592 14.1449C22.475 14.1449 22.6499 13.9699 22.6499 13.7543C22.6499 10.2989 19.8389 7.48779 16.3835 7.48779Z" fill="white"/>
<path d="M19.5182 13.7542C19.5182 13.9698 19.693 14.1449 19.9088 14.1449C20.1245 14.1449 20.2994 13.9698 20.2994 13.7542C20.2994 11.595 18.5428 9.83838 16.3835 9.83838C16.1678 9.83838 15.9929 10.0132 15.9929 10.229C15.9929 10.4448 16.1678 10.6196 16.3835 10.6196C18.1119 10.6196 19.5182 12.0257 19.5182 13.7542Z" fill="white"/>
<path d="M15.9929 12.5791C15.9929 12.7947 16.1678 12.9697 16.3835 12.9697C16.8161 12.9697 17.168 13.3216 17.168 13.7542C17.168 13.9698 17.3429 14.1448 17.5586 14.1448C17.7744 14.1448 17.9492 13.9698 17.9492 13.7542C17.9492 12.8907 17.2469 12.1885 16.3835 12.1885C16.1678 12.1885 15.9929 12.3633 15.9929 12.5791Z" fill="white"/>
<path d="M12.4603 17.7306C12.4603 17.9464 12.2855 18.1212 12.0697 18.1212C11.8539 18.1212 11.6791 17.9464 11.6791 17.7306C11.6791 17.5149 11.8539 17.3398 12.0697 17.3398C12.2855 17.3398 12.4603 17.5149 12.4603 17.7306Z" fill="white"/>
<path d="M18.8689 18.1607C18.412 17.7037 17.6685 17.7037 17.2116 18.1607L15.9261 19.4462C15.6832 19.6891 15.2269 19.7326 14.9298 19.5414C14.4805 19.2518 14.0424 18.934 13.6281 18.5966C13.4607 18.4605 13.2147 18.4857 13.0785 18.6531C12.9424 18.8205 12.9675 19.0664 13.1349 19.2025C13.5716 19.5581 14.0331 19.893 14.5067 20.1982C15.1113 20.5876 15.9773 20.4998 16.4786 19.9986L17.7641 18.713C17.9166 18.5607 18.1642 18.5609 18.3165 18.713L21.3548 21.7518C21.5071 21.9041 21.5071 22.1519 21.3548 22.3042L20.2178 23.4413C19.2986 24.3605 17.8806 24.611 16.6893 24.0647C10.725 21.331 7.61583 16.7395 6.05806 13.3691C5.52125 12.2082 5.77943 10.8091 6.70076 9.88795L7.81999 8.76888C7.97243 8.61629 8.21931 8.61583 8.37221 8.76888L11.411 11.8077C11.5633 11.9599 11.5633 12.2076 11.411 12.3599L10.1254 13.6456C9.62419 14.1468 9.53661 15.0129 9.92601 15.6175C10.1468 15.96 10.3839 16.2976 10.631 16.6209C10.762 16.7923 11.0072 16.8251 11.1786 16.694C11.35 16.5631 11.3828 16.3179 11.2518 16.1465C11.0173 15.8396 10.7923 15.5194 10.5827 15.1942C10.3914 14.8973 10.435 14.4409 10.678 14.198L11.9635 12.9124C12.4214 12.4545 12.4216 11.7132 11.9635 11.2551L8.92473 8.21635C8.46666 7.75829 7.72554 7.75829 7.26732 8.21635L6.14824 9.33543C4.99635 10.4873 4.67515 12.2401 5.34868 13.6969C7.60301 18.5739 11.3927 22.4964 16.3637 24.775C17.8449 25.4542 19.617 25.1469 20.7701 23.9938L21.9074 22.8567C22.3642 22.3997 22.3642 21.6563 21.9074 21.1994L18.8689 18.1607Z" fill="white"/>
</g>
<circle cx="15" cy="15.0986" r="14.5" stroke="white"/>
<defs>
<clipPath id="clip0_1077_4259">
<rect width="20" height="20" fill="white" transform="translate(5 5.09863)"/>
</clipPath>
</defs>
</svg>
