<svg width="30" height="31" viewBox="0 0 30 31" fill="none" xmlns="http://www.w3.org/2000/svg">
<g clip-path="url(#clip0_1077_4253)">
<path d="M25 10.0797V9.76407C25 8.57582 24.0333 7.60913 22.8451 7.60913H7.15494C5.96669 7.60913 5 8.57582 5 9.76407V10.0797V10.082V20.4334C5 21.6216 5.96669 22.5882 7.15494 22.5882H22.8452C24.0334 22.5882 25 21.6216 25 20.4334V10.082C25 10.0812 25 10.0804 25 10.0797ZM7.15494 8.78102H22.8451C23.3871 8.78102 23.8281 9.222 23.8281 9.76407V9.76434L15.9806 14.996C15.4582 15.3443 14.5419 15.3442 14.0196 14.9961L6.17188 9.7643V9.76403C6.17188 9.222 6.61286 8.78102 7.15494 8.78102ZM22.8452 21.4163H7.15494C6.61286 21.4163 6.17188 20.9754 6.17188 20.4334V11.1727L13.3696 15.9711C13.8267 16.2759 14.4133 16.4283 15 16.4283C15.5866 16.4283 16.1734 16.2759 16.6306 15.9711L23.8282 11.1727V20.4334C23.8281 20.9754 23.3872 21.4163 22.8452 21.4163Z" fill="white"/>
</g>
<circle cx="15" cy="15.0986" r="14.5" stroke="white"/>
<defs>
<clipPath id="clip0_1077_4253">
<rect width="20" height="20" fill="white" transform="translate(5 5.09863)"/>
</clipPath>
</defs>
</svg>
