<svg width="40" height="41" viewBox="0 0 40 41" fill="none" xmlns="http://www.w3.org/2000/svg">
<g clip-path="url(#clip0_1077_4235)">
<path d="M31.9765 15.1547C31.9203 13.8795 31.714 13.0028 31.4186 12.2431C31.1139 11.4367 30.645 10.7148 30.0308 10.1147C29.4306 9.50516 28.7039 9.03155 27.9069 8.73157C27.1428 8.43616 26.2707 8.22995 24.9955 8.17372C23.7108 8.11273 23.3029 8.09863 20.0445 8.09863C16.786 8.09863 16.3782 8.11273 15.0982 8.16896C13.823 8.22518 12.9463 8.43158 12.1868 8.72681C11.3802 9.03155 10.6583 9.5004 10.0581 10.1147C9.44864 10.7148 8.97522 11.4415 8.67505 12.2385C8.37964 13.0028 8.17343 13.8747 8.1172 15.1499C8.05622 16.4347 8.04211 16.8425 8.04211 20.101C8.04211 23.3594 8.05622 23.7673 8.11244 25.0473C8.16866 26.3225 8.37507 27.1992 8.67047 27.9588C8.97522 28.7652 9.44864 29.4871 10.0581 30.0873C10.6583 30.6968 11.385 31.1704 12.182 31.4704C12.9463 31.7658 13.8182 31.972 15.0936 32.0282C16.3734 32.0846 16.7814 32.0986 20.0399 32.0986C23.2983 32.0986 23.7062 32.0846 24.9862 32.0282C26.2614 31.972 27.1381 31.7658 27.8976 31.4704C29.5105 30.8468 30.7857 29.5716 31.4093 27.9588C31.7045 27.1946 31.9109 26.3225 31.9671 25.0473C32.0234 23.7673 32.0375 23.3594 32.0375 20.101C32.0375 16.8425 32.0327 16.4347 31.9765 15.1547ZM29.8152 24.9535C29.7636 26.1256 29.5667 26.7585 29.4026 27.1805C28.9993 28.226 28.1695 29.0559 27.124 29.4591C26.702 29.6232 26.0645 29.8201 24.897 29.8716C23.6311 29.928 23.2514 29.9419 20.0492 29.9419C16.847 29.9419 16.4626 29.928 15.2013 29.8716C14.0292 29.8201 13.3962 29.6232 12.9743 29.4591C12.454 29.2668 11.9804 28.9621 11.596 28.5636C11.1975 28.1744 10.8927 27.7056 10.7004 27.1852C10.5363 26.7633 10.3394 26.1256 10.288 24.9582C10.2316 23.6924 10.2176 23.3125 10.2176 20.1103C10.2176 16.9081 10.2316 16.5237 10.288 15.2626C10.3394 14.0905 10.5363 13.4575 10.7004 13.0356C10.8927 12.5151 11.1975 12.0417 11.6007 11.6571C11.9897 11.2586 12.4586 10.9538 12.9791 10.7617C13.401 10.5976 14.0387 10.4007 15.2061 10.3491C16.4719 10.2928 16.8518 10.2787 20.0538 10.2787C23.2608 10.2787 23.6404 10.2928 24.9017 10.3491C26.0738 10.4007 26.7068 10.5976 27.1287 10.7617C27.649 10.9538 28.1226 11.2586 28.507 11.6571C28.9056 12.0462 29.2103 12.5151 29.4026 13.0356C29.5667 13.4575 29.7636 14.095 29.8152 15.2626C29.8715 16.5284 29.8856 16.9081 29.8856 20.1103C29.8856 23.3125 29.8715 23.6876 29.8152 24.9535Z" fill="white"/>
<path d="M20.0445 13.9358C16.6409 13.9358 13.8793 16.6972 13.8793 20.1011C13.8793 23.5049 16.6409 26.2663 20.0445 26.2663C23.4484 26.2663 26.2098 23.5049 26.2098 20.1011C26.2098 16.6972 23.4484 13.9358 20.0445 13.9358ZM20.0445 24.1003C17.8364 24.1003 16.0453 22.3094 16.0453 20.1011C16.0453 17.8927 17.8364 16.1018 20.0445 16.1018C22.2529 16.1018 24.0438 17.8927 24.0438 20.1011C24.0438 22.3094 22.2529 24.1003 20.0445 24.1003Z" fill="white"/>
<path d="M27.8931 13.692C27.8931 14.4868 27.2486 15.1313 26.4536 15.1313C25.6588 15.1313 25.0143 14.4868 25.0143 13.692C25.0143 12.897 25.6588 12.2527 26.4536 12.2527C27.2486 12.2527 27.8931 12.897 27.8931 13.692Z" fill="white"/>
</g>
<circle cx="20" cy="20.0986" r="19.5" stroke="white"/>
<defs>
<clipPath id="clip0_1077_4235">
<rect width="24" height="24" fill="white" transform="translate(8 8.09863)"/>
</clipPath>
</defs>
</svg>
